<svg xmlns="http://www.w3.org/2000/svg" xmlns:xlink="http://www.w3.org/1999/xlink" width="1080" zoomAndPan="magnify" viewBox="0 0 810 809.999993" height="1080" preserveAspectRatio="xMidYMid meet" version="1.0"><defs><clipPath id="c72e3098fb"><path d="M 144 166 L 495.578125 166 L 495.578125 644 L 144 644 Z M 144 166 " clip-rule="nonzero"/></clipPath><clipPath id="725262c294"><path d="M 511 317 L 687 317 L 687 493 L 511 493 Z M 511 317 " clip-rule="nonzero"/></clipPath><clipPath id="a1ef551ee9"><path d="M 599.101562 240.453125 L 763.503906 404.855469 L 599.101562 569.257812 L 434.699219 404.855469 Z M 599.101562 240.453125 " clip-rule="nonzero"/></clipPath><clipPath id="a30c41951f"><path d="M 599.101562 240.453125 L 763.503906 404.855469 L 599.101562 569.257812 L 434.699219 404.855469 Z M 599.101562 240.453125 " clip-rule="nonzero"/></clipPath></defs><g clip-path="url(#c72e3098fb)"><path fill="#000000" d="M 442.027344 175.082031 C 439.757812 173.726562 437.410156 172.527344 434.984375 171.480469 C 432.558594 170.433594 430.074219 169.546875 427.53125 168.828125 C 424.988281 168.105469 422.40625 167.554688 419.792969 167.171875 C 417.175781 166.792969 414.546875 166.582031 411.90625 166.542969 C 409.261719 166.507812 406.628906 166.644531 404.003906 166.953125 C 401.378906 167.261719 398.785156 167.738281 396.222656 168.386719 C 393.660156 169.035156 391.152344 169.851562 388.695312 170.828125 C 386.242188 171.804688 383.859375 172.941406 381.554688 174.230469 C 370.328125 180.230469 359.503906 186.886719 349.085938 194.203125 C 338.667969 201.519531 328.734375 209.4375 319.28125 217.964844 C 309.828125 226.488281 300.925781 235.554688 292.574219 245.164062 C 284.226562 254.769531 276.488281 264.851562 269.363281 275.398438 L 246.152344 275.398438 C 244.492188 275.402344 242.839844 275.445312 241.183594 275.527344 C 239.53125 275.609375 237.878906 275.734375 236.230469 275.898438 C 234.582031 276.0625 232.9375 276.265625 231.300781 276.507812 C 229.660156 276.753906 228.03125 277.039062 226.40625 277.363281 C 224.78125 277.6875 223.164062 278.050781 221.558594 278.453125 C 219.953125 278.859375 218.355469 279.300781 216.769531 279.785156 C 215.1875 280.265625 213.613281 280.785156 212.054688 281.34375 C 210.496094 281.902344 208.949219 282.5 207.421875 283.136719 C 205.890625 283.769531 204.375 284.441406 202.878906 285.152344 C 201.382812 285.859375 199.902344 286.605469 198.441406 287.386719 C 196.980469 288.167969 195.542969 288.984375 194.121094 289.835938 C 192.699219 290.6875 191.300781 291.574219 189.925781 292.496094 C 188.546875 293.417969 187.191406 294.371094 185.863281 295.359375 C 184.53125 296.34375 183.226562 297.363281 181.945312 298.414062 C 180.667969 299.464844 179.414062 300.546875 178.183594 301.660156 C 176.957031 302.773438 175.757812 303.914062 174.585938 305.085938 C 173.414062 306.257812 172.273438 307.457031 171.160156 308.683594 C 170.046875 309.910156 168.964844 311.164062 167.914062 312.445312 C 166.863281 313.726562 165.84375 315.03125 164.859375 316.363281 C 163.871094 317.691406 162.917969 319.046875 161.996094 320.421875 C 161.074219 321.800781 160.1875 323.199219 159.335938 324.621094 C 158.484375 326.039062 157.667969 327.480469 156.886719 328.941406 C 156.105469 330.402344 155.359375 331.882812 154.652344 333.378906 C 153.941406 334.875 153.269531 336.390625 152.636719 337.917969 C 152 339.449219 151.402344 340.996094 150.84375 342.554688 C 150.285156 344.113281 149.765625 345.683594 149.285156 347.269531 C 148.800781 348.855469 148.359375 350.449219 147.957031 352.058594 C 147.550781 353.664062 147.1875 355.28125 146.863281 356.90625 C 146.539062 358.527344 146.253906 360.160156 146.011719 361.796875 C 145.765625 363.4375 145.5625 365.082031 145.398438 366.730469 C 145.234375 368.378906 145.109375 370.027344 145.027344 371.683594 C 144.945312 373.339844 144.902344 374.992188 144.902344 376.648438 L 144.902344 433.351562 C 144.902344 435.007812 144.945312 436.660156 145.027344 438.316406 C 145.109375 439.972656 145.234375 441.621094 145.398438 443.269531 C 145.5625 444.917969 145.765625 446.5625 146.011719 448.203125 C 146.253906 449.839844 146.539062 451.472656 146.863281 453.09375 C 147.1875 454.71875 147.550781 456.335938 147.957031 457.941406 C 148.359375 459.546875 148.800781 461.144531 149.285156 462.730469 C 149.765625 464.316406 150.285156 465.886719 150.84375 467.445312 C 151.402344 469.003906 152 470.550781 152.636719 472.082031 C 153.269531 473.609375 153.941406 475.125 154.652344 476.621094 C 155.359375 478.117188 156.105469 479.597656 156.886719 481.058594 C 157.667969 482.519531 158.484375 483.960938 159.335938 485.378906 C 160.1875 486.800781 161.074219 488.199219 161.996094 489.578125 C 162.917969 490.953125 163.871094 492.308594 164.859375 493.636719 C 165.84375 494.96875 166.863281 496.273438 167.914062 497.554688 C 168.964844 498.835938 170.046875 500.089844 171.160156 501.316406 C 172.273438 502.542969 173.414062 503.742188 174.585938 504.914062 C 175.757812 506.085938 176.957031 507.226562 178.183594 508.339844 C 179.414062 509.453125 180.667969 510.535156 181.945312 511.585938 C 183.226562 512.636719 184.53125 513.65625 185.863281 514.640625 C 187.191406 515.628906 188.546875 516.582031 189.925781 517.503906 C 191.300781 518.425781 192.699219 519.3125 194.121094 520.164062 C 195.542969 521.015625 196.980469 521.832031 198.441406 522.613281 C 199.902344 523.394531 201.382812 524.140625 202.878906 524.847656 C 204.375 525.558594 205.890625 526.230469 207.421875 526.863281 C 208.949219 527.5 210.496094 528.097656 212.054688 528.65625 C 213.613281 529.214844 215.1875 529.734375 216.769531 530.214844 C 218.355469 530.699219 219.953125 531.140625 221.558594 531.546875 C 223.164062 531.949219 224.78125 532.3125 226.40625 532.636719 C 228.03125 532.960938 229.660156 533.246094 231.300781 533.492188 C 232.9375 533.734375 234.582031 533.9375 236.230469 534.101562 C 237.878906 534.265625 239.53125 534.390625 241.183594 534.472656 C 242.839844 534.554688 244.492188 534.597656 246.152344 534.601562 L 269.363281 534.601562 C 276.488281 545.148438 284.226562 555.226562 292.578125 564.832031 C 300.929688 574.441406 309.828125 583.507812 319.28125 592.03125 C 328.734375 600.554688 338.671875 608.476562 349.085938 615.792969 C 359.503906 623.109375 370.324219 629.769531 381.550781 635.769531 C 382.703125 636.40625 383.875 637.003906 385.066406 637.5625 C 386.261719 638.125 387.46875 638.644531 388.695312 639.128906 C 389.921875 639.609375 391.160156 640.050781 392.414062 640.453125 C 393.667969 640.855469 394.933594 641.214844 396.214844 641.535156 C 397.492188 641.855469 398.777344 642.132812 400.074219 642.371094 C 401.367188 642.605469 402.671875 642.800781 403.980469 642.953125 C 405.289062 643.105469 406.597656 643.214844 407.914062 643.28125 C 409.230469 643.347656 410.546875 643.375 411.863281 643.355469 C 413.179688 643.335938 414.496094 643.277344 415.808594 643.171875 C 417.121094 643.070312 418.429688 642.925781 419.734375 642.738281 C 421.039062 642.546875 422.332031 642.320312 423.621094 642.046875 C 424.910156 641.773438 426.191406 641.460938 427.457031 641.105469 C 428.726562 640.753906 429.980469 640.355469 431.226562 639.921875 C 432.46875 639.484375 433.695312 639.007812 434.90625 638.492188 C 436.121094 637.976562 437.3125 637.421875 438.488281 636.832031 C 439.667969 636.238281 440.820312 635.609375 441.957031 634.941406 C 443.09375 634.273438 444.207031 633.570312 445.292969 632.828125 C 446.382812 632.089844 447.449219 631.316406 448.488281 630.507812 C 449.527344 629.699219 450.542969 628.855469 451.527344 627.980469 C 452.511719 627.109375 453.46875 626.203125 454.394531 625.265625 C 455.320312 624.332031 456.214844 623.367188 457.078125 622.371094 C 457.945312 621.378906 458.773438 620.355469 459.574219 619.308594 C 460.371094 618.261719 461.132812 617.1875 461.863281 616.089844 C 462.589844 614.992188 463.28125 613.875 463.9375 612.730469 C 464.59375 611.589844 465.214844 610.425781 465.792969 609.246094 C 466.375 608.0625 466.917969 606.863281 467.417969 605.644531 C 467.921875 604.425781 468.386719 603.195312 468.808594 601.949219 C 469.230469 600.699219 469.613281 599.441406 469.957031 598.167969 C 470.296875 596.898438 470.597656 595.613281 470.855469 594.324219 C 471.113281 593.03125 471.332031 591.734375 471.503906 590.429688 C 471.679688 589.121094 471.8125 587.8125 471.902344 586.5 C 471.992188 585.183594 472.039062 583.867188 472.042969 582.550781 L 472.042969 227.429688 C 472.054688 224.789062 471.890625 222.164062 471.558594 219.546875 C 471.222656 216.933594 470.71875 214.351562 470.042969 211.800781 C 469.371094 209.25 468.53125 206.757812 467.53125 204.316406 C 466.53125 201.878906 465.375 199.515625 464.0625 197.226562 C 462.75 194.9375 461.292969 192.746094 459.695312 190.648438 C 458.09375 188.554688 456.367188 186.570312 454.503906 184.699219 C 452.644531 182.832031 450.671875 181.089844 448.582031 179.480469 C 446.496094 177.871094 444.308594 176.40625 442.027344 175.082031 Z M 431.546875 582.550781 C 431.554688 584.320312 431.332031 586.0625 430.882812 587.773438 C 430.429688 589.480469 429.761719 591.105469 428.878906 592.636719 C 427.996094 594.171875 426.929688 595.5625 425.679688 596.816406 C 424.429688 598.066406 423.035156 599.132812 421.503906 600.015625 C 419.972656 600.9375 418.351562 601.640625 416.632812 602.132812 C 414.917969 602.625 413.167969 602.886719 411.382812 602.914062 C 409.597656 602.945312 407.839844 602.742188 406.109375 602.308594 C 404.378906 601.871094 402.730469 601.222656 401.171875 600.351562 C 390.707031 594.917969 380.65625 588.808594 371.023438 582.011719 C 361.386719 575.21875 352.253906 567.804688 343.621094 559.773438 C 334.988281 551.742188 326.9375 543.167969 319.46875 534.042969 C 312 524.921875 305.179688 515.335938 299.011719 505.289062 C 298.59375 504.453125 298.117188 503.652344 297.589844 502.878906 C 297.058594 502.109375 296.480469 501.378906 295.847656 500.691406 C 295.21875 500 294.542969 499.355469 293.824219 498.757812 C 293.105469 498.164062 292.347656 497.617188 291.550781 497.128906 C 290.757812 496.636719 289.929688 496.199219 289.074219 495.824219 C 288.21875 495.445312 287.34375 495.128906 286.445312 494.875 C 285.546875 494.617188 284.632812 494.425781 283.707031 494.296875 C 282.78125 494.164062 281.851562 494.101562 280.914062 494.101562 L 246.152344 494.101562 C 244.160156 494.097656 242.175781 494 240.199219 493.800781 C 238.21875 493.605469 236.253906 493.3125 234.304688 492.921875 C 232.351562 492.53125 230.425781 492.046875 228.523438 491.46875 C 226.621094 490.890625 224.75 490.21875 222.914062 489.457031 C 221.074219 488.695312 219.28125 487.847656 217.527344 486.90625 C 215.773438 485.96875 214.070312 484.949219 212.414062 483.84375 C 210.761719 482.738281 209.164062 481.550781 207.628906 480.289062 C 206.089844 479.027344 204.621094 477.695312 203.210938 476.289062 C 201.804688 474.882812 200.472656 473.410156 199.210938 471.871094 C 197.949219 470.335938 196.765625 468.738281 195.660156 467.085938 C 194.554688 465.433594 193.53125 463.726562 192.59375 461.972656 C 191.65625 460.222656 190.804688 458.425781 190.042969 456.589844 C 189.28125 454.75 188.609375 452.878906 188.03125 450.976562 C 187.453125 449.074219 186.96875 447.148438 186.578125 445.199219 C 186.1875 443.246094 185.894531 441.28125 185.699219 439.300781 C 185.503906 437.324219 185.402344 435.339844 185.402344 433.351562 L 185.402344 376.648438 C 185.402344 374.660156 185.503906 372.675781 185.699219 370.699219 C 185.894531 368.71875 186.1875 366.753906 186.578125 364.804688 C 186.96875 362.851562 187.453125 360.925781 188.03125 359.023438 C 188.609375 357.121094 189.28125 355.25 190.042969 353.410156 C 190.804688 351.574219 191.65625 349.777344 192.59375 348.027344 C 193.53125 346.273438 194.554688 344.566406 195.660156 342.914062 C 196.765625 341.261719 197.949219 339.664062 199.210938 338.128906 C 200.472656 336.589844 201.804688 335.117188 203.210938 333.710938 C 204.621094 332.304688 206.089844 330.972656 207.628906 329.710938 C 209.164062 328.449219 210.761719 327.261719 212.414062 326.15625 C 214.070312 325.050781 215.773438 324.03125 217.527344 323.09375 C 219.28125 322.152344 221.074219 321.304688 222.914062 320.542969 C 224.75 319.78125 226.621094 319.109375 228.523438 318.53125 C 230.425781 317.953125 232.351562 317.46875 234.304688 317.078125 C 236.253906 316.6875 238.21875 316.394531 240.199219 316.199219 C 242.175781 316 244.160156 315.902344 246.152344 315.898438 L 280.914062 315.898438 C 281.847656 315.894531 282.773438 315.828125 283.699219 315.699219 C 284.621094 315.566406 285.527344 315.371094 286.425781 315.117188 C 287.320312 314.859375 288.195312 314.546875 289.046875 314.167969 C 289.902344 313.792969 290.722656 313.363281 291.515625 312.871094 C 292.3125 312.382812 293.066406 311.84375 293.785156 311.25 C 294.503906 310.660156 295.179688 310.019531 295.8125 309.335938 C 296.445312 308.648438 297.027344 307.925781 297.558594 307.160156 C 298.089844 306.394531 298.566406 305.597656 298.992188 304.765625 C 305.160156 294.714844 311.980469 285.121094 319.453125 275.992188 C 326.921875 266.863281 334.976562 258.28125 343.609375 250.246094 C 352.246094 242.210938 361.382812 234.792969 371.023438 227.996094 C 380.664062 221.199219 390.71875 215.082031 401.1875 209.648438 C 402.746094 208.777344 404.390625 208.125 406.121094 207.6875 C 407.855469 207.253906 409.613281 207.046875 411.394531 207.078125 C 413.179688 207.105469 414.933594 207.363281 416.648438 207.851562 C 418.363281 208.34375 419.988281 209.046875 421.519531 209.964844 C 423.050781 210.847656 424.445312 211.914062 425.695312 213.164062 C 426.945312 214.417969 428.011719 215.808594 428.894531 217.34375 C 429.777344 218.875 430.445312 220.5 430.894531 222.207031 C 431.347656 223.917969 431.570312 225.660156 431.5625 227.429688 Z M 666.257812 405 C 666.261719 412.160156 666.003906 419.308594 665.484375 426.449219 C 664.964844 433.589844 664.1875 440.703125 663.148438 447.785156 C 662.113281 454.867188 660.816406 461.90625 659.265625 468.894531 C 657.714844 475.882812 655.910156 482.808594 653.851562 489.664062 C 651.796875 496.519531 649.492188 503.292969 646.941406 509.984375 C 644.390625 516.671875 641.597656 523.261719 638.566406 529.746094 C 635.535156 536.230469 632.269531 542.597656 628.773438 548.84375 C 625.277344 555.089844 621.554688 561.203125 617.613281 567.179688 C 616.6875 568.578125 615.609375 569.847656 614.371094 570.976562 C 613.132812 572.109375 611.773438 573.074219 610.296875 573.871094 C 608.820312 574.667969 607.269531 575.269531 605.640625 575.679688 C 604.015625 576.089844 602.363281 576.292969 600.683594 576.292969 C 598.707031 576.300781 596.769531 576.019531 594.878906 575.449219 C 592.984375 574.878906 591.214844 574.046875 589.570312 572.949219 C 589.015625 572.585938 588.480469 572.195312 587.964844 571.777344 C 587.449219 571.363281 586.953125 570.921875 586.480469 570.457031 C 586.007812 569.992188 585.558594 569.503906 585.136719 568.996094 C 584.710938 568.484375 584.3125 567.957031 583.9375 567.410156 C 583.566406 566.859375 583.222656 566.292969 582.902344 565.710938 C 582.585938 565.128906 582.296875 564.535156 582.039062 563.921875 C 581.78125 563.3125 581.550781 562.691406 581.355469 562.058594 C 581.15625 561.425781 580.992188 560.785156 580.855469 560.132812 C 580.722656 559.484375 580.617188 558.832031 580.546875 558.171875 C 580.476562 557.511719 580.441406 556.851562 580.433594 556.1875 C 580.429688 555.523438 580.457031 554.863281 580.515625 554.203125 C 580.574219 553.542969 580.667969 552.886719 580.792969 552.234375 C 580.914062 551.582031 581.070312 550.941406 581.257812 550.304688 C 581.445312 549.667969 581.664062 549.042969 581.914062 548.425781 C 582.160156 547.8125 582.4375 547.210938 582.746094 546.625 C 583.054688 546.035156 583.390625 545.464844 583.753906 544.910156 C 585.453125 542.335938 587.109375 539.726562 588.714844 537.089844 C 590.316406 534.453125 591.875 531.789062 593.382812 529.09375 C 594.890625 526.402344 596.351562 523.679688 597.757812 520.933594 C 599.167969 518.1875 600.527344 515.414062 601.835938 512.617188 C 603.140625 509.820312 604.398438 507 605.605469 504.160156 C 606.808594 501.316406 607.960938 498.453125 609.0625 495.570312 C 610.164062 492.683594 611.210938 489.78125 612.207031 486.859375 C 613.199219 483.9375 614.140625 480.996094 615.03125 478.039062 C 615.917969 475.082031 616.75 472.109375 617.53125 469.125 C 618.308594 466.136719 619.035156 463.136719 619.703125 460.121094 C 620.375 457.109375 620.988281 454.082031 621.546875 451.046875 C 622.109375 448.011719 622.613281 444.964844 623.0625 441.910156 C 623.507812 438.855469 623.902344 435.796875 624.238281 432.726562 C 624.578125 429.65625 624.855469 426.585938 625.082031 423.503906 C 625.308594 420.425781 625.476562 417.34375 625.589844 414.257812 C 625.699219 411.171875 625.757812 408.085938 625.757812 405 C 625.757812 401.914062 625.699219 398.828125 625.589844 395.742188 C 625.476562 392.65625 625.308594 389.574219 625.082031 386.496094 C 624.855469 383.414062 624.578125 380.34375 624.238281 377.273438 C 623.902344 374.203125 623.507812 371.144531 623.0625 368.089844 C 622.613281 365.035156 622.109375 361.988281 621.546875 358.953125 C 620.988281 355.917969 620.375 352.890625 619.703125 349.878906 C 619.035156 346.863281 618.308594 343.863281 617.53125 340.875 C 616.75 337.890625 615.917969 334.917969 615.03125 331.960938 C 614.140625 329.003906 613.199219 326.0625 612.207031 323.140625 C 611.210938 320.21875 610.164062 317.316406 609.0625 314.429688 C 607.960938 311.546875 606.808594 308.683594 605.605469 305.839844 C 604.398438 303 603.140625 300.179688 601.835938 297.382812 C 600.527344 294.585938 599.167969 291.8125 597.757812 289.066406 C 596.351562 286.320312 594.890625 283.597656 593.382812 280.90625 C 591.875 278.210938 590.316406 275.546875 588.714844 272.910156 C 587.109375 270.273438 585.453125 267.664062 583.753906 265.089844 C 583.390625 264.535156 583.054688 263.964844 582.746094 263.375 C 582.4375 262.789062 582.160156 262.1875 581.910156 261.574219 C 581.660156 260.957031 581.445312 260.332031 581.253906 259.695312 C 581.066406 259.058594 580.914062 258.414062 580.789062 257.765625 C 580.664062 257.113281 580.570312 256.457031 580.511719 255.796875 C 580.453125 255.136719 580.425781 254.472656 580.429688 253.808594 C 580.433594 253.148438 580.472656 252.484375 580.542969 251.824219 C 580.613281 251.167969 580.714844 250.511719 580.847656 249.863281 C 580.984375 249.210938 581.148438 248.570312 581.347656 247.9375 C 581.542969 247.304688 581.769531 246.683594 582.03125 246.070312 C 582.289062 245.460938 582.574219 244.863281 582.894531 244.28125 C 583.210938 243.699219 583.554688 243.132812 583.925781 242.582031 C 584.300781 242.035156 584.699219 241.503906 585.121094 240.996094 C 585.546875 240.488281 585.996094 240 586.46875 239.53125 C 586.941406 239.066406 587.433594 238.625 587.949219 238.210938 C 588.464844 237.792969 589 237.402344 589.554688 237.035156 C 590.109375 236.671875 590.679688 236.335938 591.265625 236.027344 C 591.855469 235.71875 592.457031 235.4375 593.070312 235.191406 C 593.683594 234.941406 594.308594 234.722656 594.945312 234.535156 C 595.582031 234.34375 596.226562 234.1875 596.878906 234.0625 C 597.527344 233.9375 598.183594 233.847656 598.84375 233.785156 C 599.507812 233.726562 600.167969 233.699219 600.832031 233.703125 C 601.496094 233.707031 602.15625 233.742188 602.816406 233.8125 C 603.476562 233.882812 604.128906 233.984375 604.78125 234.117188 C 605.429688 234.25 606.070312 234.417969 606.703125 234.613281 C 607.335938 234.808594 607.960938 235.039062 608.570312 235.296875 C 609.183594 235.554688 609.78125 235.839844 610.363281 236.15625 C 610.945312 236.472656 611.511719 236.816406 612.058594 237.191406 C 612.609375 237.5625 613.140625 237.960938 613.648438 238.382812 C 614.160156 238.808594 614.648438 239.257812 615.113281 239.730469 C 615.578125 240.199219 616.019531 240.695312 616.4375 241.210938 C 616.855469 241.726562 617.246094 242.261719 617.613281 242.8125 C 621.554688 248.789062 625.277344 254.902344 628.773438 261.148438 C 632.269531 267.394531 635.535156 273.761719 638.566406 280.246094 C 641.597656 286.734375 644.390625 293.320312 646.941406 300.011719 C 649.492188 306.699219 651.796875 313.472656 653.855469 320.332031 C 655.910156 327.1875 657.714844 334.113281 659.265625 341.101562 C 660.820312 348.09375 662.113281 355.128906 663.152344 362.210938 C 664.1875 369.296875 664.964844 376.410156 665.484375 383.550781 C 666.003906 390.691406 666.261719 397.839844 666.257812 405 Z M 585.257812 405 C 585.257812 415.402344 584.503906 425.746094 582.992188 436.039062 C 581.480469 446.328125 579.230469 456.453125 576.238281 466.414062 C 573.25 476.378906 569.550781 486.070312 565.144531 495.492188 C 560.738281 504.910156 555.667969 513.964844 549.941406 522.644531 C 549.015625 524.046875 547.9375 525.3125 546.699219 526.445312 C 545.460938 527.578125 544.101562 528.542969 542.625 529.335938 C 541.148438 530.132812 539.597656 530.734375 537.96875 531.144531 C 536.34375 531.554688 534.691406 531.761719 533.011719 531.761719 C 531.035156 531.769531 529.101562 531.484375 527.207031 530.917969 C 525.3125 530.347656 523.542969 529.511719 521.898438 528.414062 C 521.34375 528.050781 520.808594 527.660156 520.292969 527.246094 C 519.777344 526.828125 519.28125 526.386719 518.808594 525.921875 C 518.335938 525.457031 517.890625 524.96875 517.464844 524.460938 C 517.039062 523.953125 516.640625 523.421875 516.265625 522.875 C 515.894531 522.328125 515.550781 521.761719 515.230469 521.179688 C 514.914062 520.597656 514.625 520 514.367188 519.390625 C 514.109375 518.777344 513.882812 518.15625 513.683594 517.523438 C 513.484375 516.890625 513.320312 516.25 513.183594 515.601562 C 513.050781 514.953125 512.949219 514.296875 512.878906 513.636719 C 512.808594 512.976562 512.769531 512.316406 512.761719 511.652344 C 512.757812 510.992188 512.785156 510.328125 512.84375 509.667969 C 512.902344 509.007812 512.996094 508.351562 513.121094 507.699219 C 513.242188 507.050781 513.398438 506.40625 513.585938 505.769531 C 513.773438 505.132812 513.992188 504.507812 514.242188 503.894531 C 514.488281 503.277344 514.769531 502.675781 515.074219 502.089844 C 515.382812 501.503906 515.71875 500.933594 516.082031 500.378906 C 518.40625 496.863281 520.597656 493.269531 522.65625 489.597656 C 524.714844 485.925781 526.640625 482.183594 528.425781 478.367188 C 530.210938 474.554688 531.855469 470.679688 533.359375 466.746094 C 534.863281 462.8125 536.222656 458.832031 537.433594 454.796875 C 538.644531 450.765625 539.710938 446.691406 540.625 442.582031 C 541.539062 438.472656 542.304688 434.332031 542.917969 430.167969 C 543.527344 426 543.988281 421.816406 544.296875 417.617188 C 544.601562 413.417969 544.757812 409.210938 544.757812 405 C 544.757812 400.789062 544.601562 396.582031 544.296875 392.382812 C 543.988281 388.183594 543.527344 384 542.917969 379.832031 C 542.304688 375.667969 541.539062 371.527344 540.625 367.417969 C 539.710938 363.308594 538.644531 359.234375 537.433594 355.203125 C 536.222656 351.167969 534.863281 347.1875 533.359375 343.253906 C 531.855469 339.320312 530.210938 335.445312 528.425781 331.632812 C 526.640625 327.816406 524.714844 324.074219 522.65625 320.402344 C 520.597656 316.730469 518.40625 313.136719 516.082031 309.621094 C 515.71875 309.066406 515.382812 308.496094 515.074219 307.910156 C 514.765625 307.320312 514.488281 306.722656 514.238281 306.105469 C 513.992188 305.492188 513.773438 304.867188 513.585938 304.230469 C 513.398438 303.59375 513.242188 302.949219 513.117188 302.296875 C 512.992188 301.644531 512.898438 300.992188 512.839844 300.328125 C 512.78125 299.667969 512.753906 299.007812 512.757812 298.34375 C 512.761719 297.679688 512.800781 297.019531 512.871094 296.359375 C 512.941406 295.699219 513.042969 295.046875 513.175781 294.394531 C 513.3125 293.746094 513.476562 293.105469 513.675781 292.472656 C 513.871094 291.839844 514.101562 291.214844 514.359375 290.605469 C 514.617188 289.996094 514.90625 289.398438 515.222656 288.816406 C 515.539062 288.230469 515.882812 287.667969 516.253906 287.117188 C 516.628906 286.570312 517.027344 286.039062 517.453125 285.53125 C 517.875 285.019531 518.324219 284.53125 518.796875 284.066406 C 519.269531 283.601562 519.761719 283.160156 520.277344 282.742188 C 520.792969 282.324219 521.328125 281.933594 521.882812 281.570312 C 522.4375 281.207031 523.007812 280.871094 523.597656 280.5625 C 524.183594 280.253906 524.785156 279.972656 525.398438 279.722656 C 526.011719 279.472656 526.636719 279.253906 527.273438 279.066406 C 527.910156 278.878906 528.554688 278.722656 529.207031 278.597656 C 529.855469 278.472656 530.511719 278.378906 531.175781 278.320312 C 531.835938 278.257812 532.496094 278.230469 533.160156 278.234375 C 533.824219 278.238281 534.484375 278.277344 535.144531 278.347656 C 535.804688 278.417969 536.457031 278.519531 537.109375 278.652344 C 537.757812 278.785156 538.398438 278.949219 539.03125 279.148438 C 539.667969 279.34375 540.289062 279.570312 540.898438 279.828125 C 541.511719 280.085938 542.109375 280.375 542.691406 280.691406 C 543.273438 281.007812 543.839844 281.351562 544.390625 281.722656 C 544.9375 282.097656 545.46875 282.496094 545.976562 282.917969 C 546.488281 283.34375 546.976562 283.789062 547.441406 284.261719 C 547.90625 284.734375 548.351562 285.226562 548.765625 285.742188 C 549.183594 286.257812 549.574219 286.792969 549.941406 287.347656 C 555.671875 296.027344 560.738281 305.082031 565.144531 314.503906 C 569.550781 323.925781 573.25 333.617188 576.238281 343.578125 C 579.230469 353.542969 581.480469 363.667969 582.992188 373.960938 C 584.503906 384.253906 585.257812 394.597656 585.257812 405 Z M 585.257812 405 " fill-opacity="1" fill-rule="nonzero"/></g><g clip-path="url(#725262c294)"><g clip-path="url(#a1ef551ee9)"><g clip-path="url(#a30c41951f)"><path fill="#000000" d="M 656.335938 487.273438 L 516.828125 347.765625 C 510.03125 340.96875 510.03125 329.523438 516.828125 322.726562 C 523.625 315.929688 535.070312 315.929688 541.867188 322.726562 L 681.375 462.234375 C 688.171875 469.03125 688.171875 480.476562 681.375 487.273438 C 674.578125 494.070312 663.132812 494.070312 656.335938 487.273438 Z M 656.335938 487.273438 " fill-opacity="1" fill-rule="nonzero"/><path fill="#000000" d="M 516.828125 462.234375 L 656.335938 322.726562 C 663.132812 315.929688 674.578125 315.929688 681.375 322.726562 C 688.171875 329.523438 688.171875 340.96875 681.375 347.765625 L 541.867188 487.273438 C 535.070312 494.070312 523.625 494.070312 516.828125 487.273438 C 510.03125 480.476562 510.03125 469.03125 516.828125 462.234375 Z M 516.828125 462.234375 " fill-opacity="1" fill-rule="nonzero"/></g></g></g></svg>