<svg xmlns="http://www.w3.org/2000/svg" xmlns:xlink="http://www.w3.org/1999/xlink" width="1080" zoomAndPan="magnify" viewBox="0 0 810 809.999993" height="1080" preserveAspectRatio="xMidYMid meet" version="1.0"><path fill="#000000" d="M 441.449219 175.082031 C 439.179688 173.726562 436.832031 172.527344 434.40625 171.480469 C 431.980469 170.433594 429.492188 169.546875 426.949219 168.828125 C 424.40625 168.105469 421.828125 167.554688 419.214844 167.171875 C 416.597656 166.792969 413.96875 166.582031 411.328125 166.542969 C 408.683594 166.507812 406.050781 166.644531 403.425781 166.953125 C 400.800781 167.261719 398.207031 167.738281 395.644531 168.386719 C 393.082031 169.035156 390.574219 169.851562 388.117188 170.828125 C 385.664062 171.804688 383.28125 172.941406 380.976562 174.230469 C 369.746094 180.230469 358.925781 186.886719 348.507812 194.203125 C 338.089844 201.519531 328.15625 209.4375 318.703125 217.964844 C 309.25 226.488281 300.347656 235.554688 291.996094 245.164062 C 283.644531 254.769531 275.910156 264.851562 268.785156 275.398438 L 245.570312 275.398438 C 243.914062 275.402344 242.257812 275.445312 240.605469 275.527344 C 238.949219 275.609375 237.300781 275.734375 235.652344 275.898438 C 234.003906 276.0625 232.359375 276.265625 230.71875 276.507812 C 229.082031 276.753906 227.449219 277.039062 225.824219 277.363281 C 224.203125 277.6875 222.585938 278.050781 220.980469 278.453125 C 219.371094 278.859375 217.777344 279.300781 216.191406 279.785156 C 214.605469 280.265625 213.035156 280.785156 211.476562 281.34375 C 209.917969 281.902344 208.371094 282.5 206.839844 283.136719 C 205.3125 283.769531 203.796875 284.441406 202.300781 285.152344 C 200.804688 285.859375 199.324219 286.605469 197.863281 287.386719 C 196.402344 288.167969 194.960938 288.984375 193.542969 289.835938 C 192.121094 290.6875 190.722656 291.574219 189.34375 292.496094 C 187.96875 293.417969 186.613281 294.371094 185.285156 295.359375 C 183.953125 296.34375 182.648438 297.363281 181.367188 298.414062 C 180.085938 299.464844 178.832031 300.546875 177.605469 301.660156 C 176.378906 302.773438 175.179688 303.914062 174.007812 305.085938 C 172.835938 306.257812 171.695312 307.457031 170.582031 308.683594 C 169.46875 309.910156 168.386719 311.164062 167.335938 312.445312 C 166.285156 313.726562 165.265625 315.03125 164.28125 316.363281 C 163.292969 317.691406 162.339844 319.046875 161.417969 320.421875 C 160.496094 321.800781 159.609375 323.199219 158.757812 324.621094 C 157.90625 326.039062 157.089844 327.480469 156.308594 328.941406 C 155.527344 330.402344 154.78125 331.882812 154.074219 333.378906 C 153.363281 334.875 152.691406 336.390625 152.058594 337.917969 C 151.421875 339.449219 150.824219 340.996094 150.265625 342.554688 C 149.707031 344.113281 149.1875 345.683594 148.707031 347.269531 C 148.222656 348.855469 147.78125 350.449219 147.375 352.058594 C 146.972656 353.664062 146.609375 355.28125 146.285156 356.90625 C 145.960938 358.527344 145.675781 360.160156 145.429688 361.796875 C 145.1875 363.4375 144.984375 365.082031 144.820312 366.730469 C 144.65625 368.378906 144.53125 370.027344 144.449219 371.683594 C 144.367188 373.339844 144.324219 374.992188 144.320312 376.648438 L 144.320312 433.351562 C 144.324219 435.007812 144.367188 436.660156 144.449219 438.316406 C 144.53125 439.972656 144.65625 441.621094 144.820312 443.269531 C 144.984375 444.917969 145.1875 446.5625 145.429688 448.203125 C 145.675781 449.839844 145.960938 451.472656 146.285156 453.09375 C 146.609375 454.71875 146.972656 456.335938 147.375 457.941406 C 147.78125 459.546875 148.222656 461.144531 148.707031 462.730469 C 149.1875 464.316406 149.707031 465.886719 150.265625 467.445312 C 150.824219 469.003906 151.421875 470.550781 152.058594 472.082031 C 152.691406 473.609375 153.363281 475.125 154.074219 476.621094 C 154.78125 478.117188 155.527344 479.597656 156.308594 481.058594 C 157.089844 482.519531 157.90625 483.960938 158.757812 485.378906 C 159.609375 486.800781 160.496094 488.199219 161.417969 489.578125 C 162.339844 490.953125 163.292969 492.308594 164.28125 493.636719 C 165.265625 494.96875 166.285156 496.273438 167.335938 497.554688 C 168.386719 498.835938 169.46875 500.089844 170.582031 501.316406 C 171.695312 502.542969 172.835938 503.742188 174.007812 504.914062 C 175.179688 506.085938 176.378906 507.226562 177.605469 508.339844 C 178.832031 509.453125 180.085938 510.535156 181.367188 511.585938 C 182.648438 512.636719 183.953125 513.65625 185.285156 514.640625 C 186.613281 515.628906 187.96875 516.582031 189.34375 517.503906 C 190.722656 518.425781 192.121094 519.3125 193.542969 520.164062 C 194.960938 521.015625 196.402344 521.832031 197.863281 522.613281 C 199.324219 523.394531 200.804688 524.140625 202.300781 524.847656 C 203.796875 525.558594 205.3125 526.230469 206.839844 526.863281 C 208.371094 527.5 209.917969 528.097656 211.476562 528.65625 C 213.035156 529.214844 214.605469 529.734375 216.191406 530.214844 C 217.777344 530.699219 219.371094 531.140625 220.980469 531.546875 C 222.585938 531.949219 224.203125 532.3125 225.824219 532.636719 C 227.449219 532.960938 229.082031 533.246094 230.71875 533.492188 C 232.359375 533.734375 234.003906 533.9375 235.652344 534.101562 C 237.300781 534.265625 238.949219 534.390625 240.605469 534.472656 C 242.257812 534.554688 243.914062 534.597656 245.570312 534.601562 L 268.785156 534.601562 C 275.910156 545.148438 283.648438 555.226562 292 564.832031 C 300.347656 574.441406 309.25 583.507812 318.703125 592.03125 C 328.15625 600.554688 338.089844 608.476562 348.507812 615.792969 C 358.925781 623.109375 369.746094 629.769531 380.972656 635.769531 C 382.125 636.40625 383.296875 637.003906 384.488281 637.5625 C 385.679688 638.125 386.890625 638.644531 388.117188 639.128906 C 389.339844 639.609375 390.582031 640.050781 391.835938 640.453125 C 393.089844 640.855469 394.355469 641.214844 395.632812 641.535156 C 396.910156 641.855469 398.199219 642.132812 399.496094 642.371094 C 400.789062 642.605469 402.09375 642.800781 403.402344 642.953125 C 404.707031 643.105469 406.019531 643.214844 407.335938 643.28125 C 408.652344 643.347656 409.96875 643.375 411.285156 643.355469 C 412.601562 643.335938 413.917969 643.277344 415.230469 643.171875 C 416.542969 643.070312 417.851562 642.925781 419.15625 642.738281 C 420.457031 642.546875 421.753906 642.320312 423.042969 642.046875 C 424.332031 641.773438 425.609375 641.460938 426.878906 641.105469 C 428.148438 640.753906 429.402344 640.355469 430.644531 639.921875 C 431.890625 639.484375 433.117188 639.007812 434.328125 638.492188 C 435.539062 637.976562 436.734375 637.421875 437.910156 636.832031 C 439.085938 636.238281 440.242188 635.609375 441.378906 634.941406 C 442.515625 634.273438 443.625 633.570312 444.714844 632.828125 C 445.804688 632.089844 446.871094 631.316406 447.910156 630.507812 C 448.949219 629.699219 449.960938 628.855469 450.949219 627.980469 C 451.933594 627.109375 452.886719 626.203125 453.816406 625.265625 C 454.742188 624.332031 455.636719 623.367188 456.5 622.371094 C 457.363281 621.378906 458.195312 620.355469 458.992188 619.308594 C 459.792969 618.261719 460.554688 617.1875 461.285156 616.089844 C 462.011719 614.992188 462.703125 613.875 463.359375 612.730469 C 464.015625 611.589844 464.632812 610.425781 465.214844 609.246094 C 465.796875 608.0625 466.335938 606.863281 466.839844 605.644531 C 467.34375 604.425781 467.804688 603.195312 468.230469 601.949219 C 468.652344 600.699219 469.035156 599.441406 469.375 598.167969 C 469.71875 596.898438 470.019531 595.613281 470.277344 594.324219 C 470.535156 593.03125 470.753906 591.734375 470.925781 590.429688 C 471.101562 589.121094 471.234375 587.8125 471.324219 586.5 C 471.414062 585.183594 471.460938 583.867188 471.464844 582.550781 L 471.464844 227.429688 C 471.476562 224.789062 471.3125 222.164062 470.976562 219.546875 C 470.644531 216.933594 470.140625 214.351562 469.464844 211.800781 C 468.792969 209.25 467.953125 206.757812 466.953125 204.316406 C 465.953125 201.878906 464.796875 199.515625 463.484375 197.226562 C 462.171875 194.9375 460.714844 192.746094 459.117188 190.648438 C 457.515625 188.554688 455.785156 186.570312 453.925781 184.699219 C 452.066406 182.832031 450.09375 181.089844 448.003906 179.480469 C 445.914062 177.871094 443.730469 176.40625 441.449219 175.082031 Z M 430.96875 582.550781 C 430.976562 584.320312 430.753906 586.0625 430.300781 587.773438 C 429.851562 589.480469 429.183594 591.105469 428.300781 592.636719 C 427.417969 594.171875 426.351562 595.5625 425.101562 596.816406 C 423.851562 598.066406 422.457031 599.132812 420.925781 600.015625 C 419.394531 600.9375 417.773438 601.640625 416.054688 602.132812 C 414.339844 602.625 412.589844 602.886719 410.804688 602.914062 C 409.019531 602.945312 407.261719 602.742188 405.53125 602.308594 C 403.796875 601.871094 402.152344 601.222656 400.59375 600.351562 C 390.128906 594.917969 380.078125 588.808594 370.441406 582.011719 C 360.808594 575.21875 351.671875 567.804688 343.042969 559.773438 C 334.410156 551.742188 326.359375 543.167969 318.890625 534.042969 C 311.421875 524.921875 304.601562 515.335938 298.433594 505.289062 C 298.015625 504.453125 297.539062 503.652344 297.011719 502.878906 C 296.480469 502.109375 295.902344 501.378906 295.269531 500.691406 C 294.640625 500 293.964844 499.355469 293.246094 498.757812 C 292.523438 498.164062 291.769531 497.617188 290.972656 497.128906 C 290.175781 496.636719 289.351562 496.199219 288.496094 495.824219 C 287.640625 495.445312 286.765625 495.128906 285.867188 494.875 C 284.964844 494.617188 284.054688 494.425781 283.128906 494.296875 C 282.203125 494.164062 281.273438 494.101562 280.335938 494.101562 L 245.570312 494.101562 C 243.582031 494.097656 241.597656 494 239.621094 493.800781 C 237.640625 493.605469 235.675781 493.3125 233.722656 492.921875 C 231.773438 492.53125 229.847656 492.046875 227.945312 491.46875 C 226.042969 490.890625 224.171875 490.21875 222.332031 489.457031 C 220.496094 488.695312 218.699219 487.847656 216.945312 486.90625 C 215.195312 485.96875 213.488281 484.949219 211.835938 483.84375 C 210.183594 482.738281 208.585938 481.550781 207.050781 480.289062 C 205.511719 479.027344 204.039062 477.695312 202.632812 476.289062 C 201.226562 474.882812 199.894531 473.410156 198.632812 471.871094 C 197.367188 470.335938 196.183594 468.738281 195.078125 467.085938 C 193.972656 465.433594 192.953125 463.726562 192.015625 461.972656 C 191.074219 460.222656 190.226562 458.425781 189.464844 456.589844 C 188.703125 454.75 188.03125 452.878906 187.453125 450.976562 C 186.875 449.074219 186.390625 447.148438 186 445.199219 C 185.609375 443.246094 185.316406 441.28125 185.121094 439.300781 C 184.921875 437.324219 184.824219 435.339844 184.820312 433.351562 L 184.820312 376.648438 C 184.824219 374.660156 184.921875 372.675781 185.121094 370.699219 C 185.316406 368.71875 185.609375 366.753906 186 364.804688 C 186.390625 362.851562 186.875 360.925781 187.453125 359.023438 C 188.03125 357.121094 188.703125 355.25 189.464844 353.410156 C 190.226562 351.574219 191.074219 349.777344 192.015625 348.027344 C 192.953125 346.273438 193.972656 344.566406 195.078125 342.914062 C 196.183594 341.261719 197.367188 339.664062 198.632812 338.128906 C 199.894531 336.589844 201.226562 335.117188 202.632812 333.710938 C 204.039062 332.304688 205.511719 330.972656 207.050781 329.710938 C 208.585938 328.449219 210.183594 327.261719 211.835938 326.15625 C 213.488281 325.050781 215.195312 324.03125 216.945312 323.09375 C 218.699219 322.152344 220.496094 321.304688 222.332031 320.542969 C 224.171875 319.78125 226.042969 319.109375 227.945312 318.53125 C 229.847656 317.953125 231.773438 317.46875 233.722656 317.078125 C 235.675781 316.6875 237.640625 316.394531 239.621094 316.199219 C 241.597656 316 243.582031 315.902344 245.570312 315.898438 L 280.335938 315.898438 C 281.269531 315.894531 282.195312 315.828125 283.117188 315.699219 C 284.042969 315.566406 284.949219 315.371094 285.847656 315.117188 C 286.742188 314.859375 287.617188 314.546875 288.46875 314.167969 C 289.320312 313.792969 290.144531 313.363281 290.9375 312.871094 C 291.730469 312.382812 292.488281 311.84375 293.207031 311.25 C 293.925781 310.660156 294.601562 310.019531 295.234375 309.335938 C 295.867188 308.648438 296.449219 307.925781 296.980469 307.160156 C 297.511719 306.394531 297.988281 305.597656 298.410156 304.765625 C 304.582031 294.714844 311.402344 285.121094 318.875 275.992188 C 326.34375 266.863281 334.398438 258.28125 343.03125 250.246094 C 351.667969 242.210938 360.804688 234.792969 370.445312 227.996094 C 380.085938 221.199219 390.140625 215.082031 400.609375 209.648438 C 402.167969 208.777344 403.8125 208.125 405.542969 207.6875 C 407.273438 207.253906 409.03125 207.046875 410.816406 207.078125 C 412.601562 207.105469 414.351562 207.363281 416.070312 207.851562 C 417.785156 208.34375 419.410156 209.046875 420.941406 209.964844 C 422.472656 210.847656 423.867188 211.914062 425.117188 213.164062 C 426.367188 214.417969 427.433594 215.808594 428.316406 217.34375 C 429.195312 218.875 429.863281 220.5 430.316406 222.207031 C 430.769531 223.917969 430.992188 225.660156 430.984375 227.429688 Z M 665.679688 405 C 665.683594 412.160156 665.425781 419.308594 664.90625 426.449219 C 664.386719 433.589844 663.609375 440.703125 662.570312 447.785156 C 661.53125 454.867188 660.238281 461.90625 658.6875 468.894531 C 657.136719 475.882812 655.332031 482.808594 653.273438 489.664062 C 651.21875 496.519531 648.914062 503.292969 646.363281 509.984375 C 643.8125 516.671875 641.019531 523.261719 637.988281 529.746094 C 634.953125 536.230469 631.691406 542.597656 628.195312 548.84375 C 624.695312 555.089844 620.976562 561.203125 617.035156 567.179688 C 616.109375 568.578125 615.03125 569.847656 613.792969 570.976562 C 612.554688 572.109375 611.195312 573.074219 609.71875 573.871094 C 608.242188 574.667969 606.6875 575.269531 605.0625 575.679688 C 603.433594 576.089844 601.78125 576.292969 600.105469 576.292969 C 598.128906 576.300781 596.191406 576.019531 594.300781 575.449219 C 592.40625 574.878906 590.636719 574.046875 588.992188 572.949219 C 588.4375 572.585938 587.902344 572.195312 587.386719 571.777344 C 586.871094 571.363281 586.375 570.921875 585.902344 570.457031 C 585.429688 569.992188 584.980469 569.503906 584.558594 568.996094 C 584.132812 568.484375 583.734375 567.957031 583.359375 567.410156 C 582.988281 566.859375 582.640625 566.292969 582.324219 565.710938 C 582.007812 565.128906 581.71875 564.535156 581.460938 563.921875 C 581.203125 563.3125 580.972656 562.691406 580.777344 562.058594 C 580.578125 561.425781 580.414062 560.785156 580.277344 560.132812 C 580.144531 559.484375 580.039062 558.832031 579.96875 558.171875 C 579.898438 557.511719 579.863281 556.851562 579.855469 556.1875 C 579.851562 555.523438 579.878906 554.863281 579.9375 554.203125 C 579.996094 553.542969 580.089844 552.886719 580.210938 552.234375 C 580.335938 551.582031 580.492188 550.941406 580.679688 550.304688 C 580.867188 549.667969 581.085938 549.042969 581.332031 548.425781 C 581.582031 547.8125 581.859375 547.210938 582.167969 546.625 C 582.476562 546.035156 582.8125 545.464844 583.175781 544.910156 C 584.875 542.335938 586.527344 539.726562 588.132812 537.089844 C 589.738281 534.453125 591.296875 531.789062 592.804688 529.09375 C 594.3125 526.402344 595.769531 523.679688 597.179688 520.933594 C 598.589844 518.1875 599.949219 515.414062 601.253906 512.617188 C 602.5625 509.820312 603.820312 507 605.023438 504.160156 C 606.230469 501.316406 607.382812 498.453125 608.484375 495.570312 C 609.585938 492.683594 610.632812 489.78125 611.628906 486.859375 C 612.621094 483.9375 613.5625 480.996094 614.449219 478.039062 C 615.339844 475.082031 616.171875 472.109375 616.953125 469.125 C 617.730469 466.136719 618.457031 463.136719 619.125 460.121094 C 619.796875 457.109375 620.410156 454.082031 620.96875 451.046875 C 621.53125 448.011719 622.035156 444.964844 622.480469 441.910156 C 622.929688 438.855469 623.324219 435.796875 623.660156 432.726562 C 623.996094 429.65625 624.277344 426.585938 624.503906 423.503906 C 624.726562 420.425781 624.898438 417.34375 625.007812 414.257812 C 625.121094 411.171875 625.179688 408.085938 625.179688 405 C 625.179688 401.914062 625.121094 398.828125 625.007812 395.742188 C 624.898438 392.65625 624.726562 389.574219 624.503906 386.496094 C 624.277344 383.414062 623.996094 380.34375 623.660156 377.273438 C 623.324219 374.203125 622.929688 371.144531 622.480469 368.089844 C 622.035156 365.035156 621.53125 361.988281 620.96875 358.953125 C 620.410156 355.917969 619.796875 352.890625 619.125 349.878906 C 618.457031 346.863281 617.730469 343.863281 616.953125 340.875 C 616.171875 337.890625 615.339844 334.917969 614.449219 331.960938 C 613.5625 329.003906 612.621094 326.0625 611.628906 323.140625 C 610.632812 320.21875 609.585938 317.316406 608.484375 314.429688 C 607.382812 311.546875 606.230469 308.683594 605.023438 305.839844 C 603.820312 303 602.5625 300.179688 601.253906 297.382812 C 599.949219 294.585938 598.589844 291.8125 597.179688 289.066406 C 595.769531 286.320312 594.3125 283.597656 592.804688 280.90625 C 591.296875 278.210938 589.738281 275.546875 588.132812 272.910156 C 586.527344 270.273438 584.875 267.664062 583.175781 265.089844 C 582.8125 264.535156 582.476562 263.964844 582.167969 263.375 C 581.859375 262.789062 581.582031 262.1875 581.332031 261.574219 C 581.082031 260.957031 580.863281 260.332031 580.675781 259.695312 C 580.488281 259.058594 580.332031 258.414062 580.210938 257.765625 C 580.085938 257.113281 579.992188 256.457031 579.933594 255.796875 C 579.871094 255.136719 579.84375 254.472656 579.851562 253.808594 C 579.855469 253.148438 579.894531 252.484375 579.964844 251.824219 C 580.035156 251.167969 580.136719 250.511719 580.269531 249.863281 C 580.402344 249.210938 580.570312 248.570312 580.765625 247.9375 C 580.964844 247.304688 581.191406 246.683594 581.449219 246.070312 C 581.710938 245.460938 581.996094 244.863281 582.3125 244.28125 C 582.632812 243.699219 582.976562 243.132812 583.347656 242.582031 C 583.722656 242.035156 584.121094 241.503906 584.542969 240.996094 C 584.96875 240.488281 585.417969 240 585.890625 239.53125 C 586.363281 239.066406 586.855469 238.625 587.371094 238.210938 C 587.886719 237.792969 588.421875 237.402344 588.976562 237.035156 C 589.53125 236.671875 590.101562 236.335938 590.6875 236.027344 C 591.277344 235.71875 591.875 235.4375 592.492188 235.191406 C 593.105469 234.941406 593.730469 234.722656 594.367188 234.535156 C 595.003906 234.34375 595.648438 234.1875 596.296875 234.0625 C 596.949219 233.9375 597.605469 233.847656 598.265625 233.785156 C 598.925781 233.726562 599.589844 233.699219 600.253906 233.703125 C 600.914062 233.707031 601.578125 233.742188 602.238281 233.8125 C 602.898438 233.882812 603.550781 233.984375 604.199219 234.117188 C 604.851562 234.25 605.492188 234.417969 606.125 234.613281 C 606.757812 234.808594 607.382812 235.039062 607.992188 235.296875 C 608.605469 235.554688 609.199219 235.839844 609.785156 236.15625 C 610.367188 236.472656 610.933594 236.816406 611.480469 237.191406 C 612.03125 237.5625 612.558594 237.960938 613.070312 238.382812 C 613.582031 238.808594 614.070312 239.257812 614.535156 239.730469 C 615 240.199219 615.441406 240.695312 615.859375 241.210938 C 616.277344 241.726562 616.667969 242.261719 617.035156 242.8125 C 620.976562 248.789062 624.695312 254.902344 628.195312 261.148438 C 631.691406 267.394531 634.957031 273.761719 637.988281 280.246094 C 641.019531 286.734375 643.8125 293.320312 646.363281 300.011719 C 648.914062 306.699219 651.21875 313.472656 653.277344 320.332031 C 655.332031 327.1875 657.136719 334.113281 658.6875 341.101562 C 660.238281 348.09375 661.535156 355.128906 662.570312 362.210938 C 663.609375 369.296875 664.386719 376.410156 664.90625 383.550781 C 665.425781 390.691406 665.683594 397.839844 665.679688 405 Z M 584.679688 405 C 584.679688 415.402344 583.921875 425.746094 582.414062 436.039062 C 580.902344 446.328125 578.648438 456.453125 575.660156 466.414062 C 572.667969 476.378906 568.972656 486.070312 564.566406 495.492188 C 560.160156 504.910156 555.089844 513.964844 549.363281 522.644531 C 548.4375 524.046875 547.359375 525.3125 546.121094 526.445312 C 544.882812 527.578125 543.523438 528.542969 542.046875 529.335938 C 540.570312 530.132812 539.015625 530.734375 537.390625 531.144531 C 535.761719 531.554688 534.109375 531.761719 532.433594 531.761719 C 530.457031 531.769531 528.519531 531.484375 526.628906 530.917969 C 524.734375 530.347656 522.964844 529.511719 521.320312 528.414062 C 520.765625 528.050781 520.230469 527.660156 519.714844 527.246094 C 519.199219 526.828125 518.703125 526.386719 518.230469 525.921875 C 517.757812 525.457031 517.308594 524.96875 516.886719 524.460938 C 516.460938 523.953125 516.0625 523.421875 515.6875 522.875 C 515.316406 522.328125 514.96875 521.761719 514.652344 521.179688 C 514.335938 520.597656 514.046875 520 513.789062 519.390625 C 513.53125 518.777344 513.300781 518.15625 513.105469 517.523438 C 512.90625 516.890625 512.742188 516.25 512.605469 515.601562 C 512.472656 514.953125 512.367188 514.296875 512.296875 513.636719 C 512.226562 512.976562 512.191406 512.316406 512.183594 511.652344 C 512.179688 510.992188 512.207031 510.328125 512.265625 509.667969 C 512.324219 509.007812 512.417969 508.351562 512.542969 507.699219 C 512.664062 507.050781 512.820312 506.40625 513.007812 505.769531 C 513.195312 505.132812 513.414062 504.507812 513.664062 503.894531 C 513.910156 503.277344 514.1875 502.675781 514.496094 502.089844 C 514.804688 501.503906 515.140625 500.933594 515.503906 500.378906 C 517.828125 496.863281 520.015625 493.269531 522.078125 489.597656 C 524.136719 485.925781 526.058594 482.183594 527.847656 478.367188 C 529.632812 474.554688 531.277344 470.679688 532.78125 466.746094 C 534.285156 462.8125 535.640625 458.832031 536.855469 454.796875 C 538.066406 450.765625 539.128906 446.691406 540.046875 442.582031 C 540.960938 438.472656 541.726562 434.332031 542.335938 430.167969 C 542.949219 426 543.410156 421.816406 543.71875 417.617188 C 544.023438 413.417969 544.179688 409.210938 544.179688 405 C 544.179688 400.789062 544.023438 396.582031 543.71875 392.382812 C 543.410156 388.183594 542.949219 384 542.335938 379.832031 C 541.726562 375.667969 540.960938 371.527344 540.046875 367.417969 C 539.128906 363.308594 538.066406 359.234375 536.855469 355.203125 C 535.640625 351.167969 534.285156 347.1875 532.78125 343.253906 C 531.277344 339.320312 529.632812 335.445312 527.847656 331.632812 C 526.058594 327.816406 524.136719 324.074219 522.078125 320.402344 C 520.015625 316.730469 517.828125 313.136719 515.503906 309.621094 C 515.140625 309.066406 514.804688 308.496094 514.496094 307.910156 C 514.1875 307.320312 513.910156 306.722656 513.660156 306.105469 C 513.410156 305.492188 513.191406 304.867188 513.003906 304.230469 C 512.816406 303.59375 512.660156 302.949219 512.539062 302.296875 C 512.414062 301.644531 512.320312 300.992188 512.261719 300.328125 C 512.203125 299.667969 512.175781 299.007812 512.179688 298.34375 C 512.183594 297.679688 512.222656 297.019531 512.292969 296.359375 C 512.363281 295.699219 512.464844 295.046875 512.597656 294.394531 C 512.734375 293.746094 512.898438 293.105469 513.097656 292.472656 C 513.292969 291.839844 513.519531 291.214844 513.78125 290.605469 C 514.039062 289.996094 514.324219 289.398438 514.644531 288.816406 C 514.960938 288.230469 515.304688 287.667969 515.675781 287.117188 C 516.050781 286.570312 516.449219 286.039062 516.871094 285.53125 C 517.296875 285.019531 517.746094 284.53125 518.21875 284.066406 C 518.691406 283.601562 519.183594 283.160156 519.699219 282.742188 C 520.214844 282.324219 520.75 281.933594 521.304688 281.570312 C 521.859375 281.207031 522.429688 280.871094 523.015625 280.5625 C 523.605469 280.253906 524.207031 279.972656 524.820312 279.722656 C 525.433594 279.472656 526.058594 279.253906 526.695312 279.066406 C 527.332031 278.878906 527.976562 278.722656 528.628906 278.597656 C 529.277344 278.472656 529.933594 278.378906 530.59375 278.320312 C 531.253906 278.257812 531.917969 278.230469 532.582031 278.234375 C 533.246094 278.238281 533.90625 278.277344 534.566406 278.347656 C 535.226562 278.417969 535.878906 278.519531 536.53125 278.652344 C 537.179688 278.785156 537.820312 278.949219 538.453125 279.148438 C 539.085938 279.34375 539.710938 279.570312 540.320312 279.828125 C 540.933594 280.085938 541.527344 280.375 542.113281 280.691406 C 542.695312 281.007812 543.261719 281.351562 543.808594 281.722656 C 544.359375 282.097656 544.890625 282.496094 545.398438 282.917969 C 545.910156 283.34375 546.398438 283.789062 546.863281 284.261719 C 547.328125 284.734375 547.769531 285.226562 548.1875 285.742188 C 548.605469 286.257812 548.996094 286.792969 549.363281 287.347656 C 555.089844 296.027344 560.160156 305.082031 564.566406 314.503906 C 568.972656 323.925781 572.671875 333.617188 575.660156 343.578125 C 578.652344 353.542969 580.902344 363.667969 582.414062 373.960938 C 583.925781 384.253906 584.679688 394.597656 584.679688 405 Z M 584.679688 405 " fill-opacity="1" fill-rule="nonzero"/></svg>