<svg xmlns="http://www.w3.org/2000/svg" xmlns:xlink="http://www.w3.org/1999/xlink" width="1080" zoomAndPan="magnify" viewBox="0 0 810 809.999993" height="1080" preserveAspectRatio="xMidYMid meet" version="1.0"><path fill="#000000" d="M 228.222656 171.519531 C 227.457031 171.519531 226.695312 171.558594 225.933594 171.632812 C 225.171875 171.707031 224.417969 171.820312 223.667969 171.96875 C 222.917969 172.117188 222.175781 172.304688 221.445312 172.523438 C 220.710938 172.746094 219.992188 173.003906 219.285156 173.296875 C 218.578125 173.589844 217.890625 173.917969 217.214844 174.277344 C 216.539062 174.636719 215.886719 175.03125 215.25 175.453125 C 214.613281 175.878906 214 176.335938 213.410156 176.820312 C 212.820312 177.304688 212.253906 177.816406 211.710938 178.359375 C 211.171875 178.898438 210.660156 179.464844 210.171875 180.054688 C 209.6875 180.648438 209.234375 181.261719 208.808594 181.894531 C 208.382812 182.53125 207.992188 183.1875 207.628906 183.859375 C 207.269531 184.535156 206.941406 185.226562 206.652344 185.933594 C 206.359375 186.640625 206.101562 187.359375 205.878906 188.089844 C 205.65625 188.820312 205.472656 189.5625 205.320312 190.3125 C 205.171875 191.0625 205.0625 191.816406 204.984375 192.578125 C 204.910156 193.339844 204.875 194.101562 204.875 194.867188 L 204.875 615.125 C 204.875 615.890625 204.910156 616.652344 204.984375 617.414062 C 205.0625 618.175781 205.171875 618.929688 205.320312 619.679688 C 205.472656 620.429688 205.65625 621.171875 205.878906 621.902344 C 206.101562 622.632812 206.359375 623.351562 206.652344 624.058594 C 206.941406 624.765625 207.269531 625.457031 207.628906 626.128906 C 207.992188 626.804688 208.382812 627.460938 208.808594 628.097656 C 209.234375 628.730469 209.6875 629.34375 210.171875 629.9375 C 210.65625 630.527344 211.171875 631.09375 211.710938 631.632812 C 212.253906 632.175781 212.820312 632.6875 213.410156 633.171875 C 214 633.65625 214.613281 634.113281 215.25 634.539062 C 215.886719 634.960938 216.539062 635.355469 217.214844 635.714844 C 217.890625 636.074219 218.578125 636.402344 219.285156 636.695312 C 219.992188 636.988281 220.710938 637.246094 221.445312 637.46875 C 222.175781 637.6875 222.917969 637.875 223.667969 638.023438 C 224.417969 638.171875 225.171875 638.285156 225.933594 638.359375 C 226.695312 638.433594 227.457031 638.472656 228.222656 638.472656 L 314.941406 638.472656 C 315.707031 638.472656 316.46875 638.433594 317.230469 638.359375 C 317.992188 638.285156 318.746094 638.171875 319.496094 638.023438 C 320.246094 637.875 320.988281 637.6875 321.71875 637.46875 C 322.449219 637.246094 323.167969 636.988281 323.875 636.695312 C 324.582031 636.402344 325.273438 636.074219 325.945312 635.714844 C 326.621094 635.355469 327.277344 634.960938 327.910156 634.539062 C 328.546875 634.113281 329.160156 633.65625 329.753906 633.171875 C 330.34375 632.6875 330.910156 632.175781 331.449219 631.632812 C 331.992188 631.09375 332.503906 630.527344 332.988281 629.9375 C 333.472656 629.34375 333.929688 628.730469 334.355469 628.097656 C 334.777344 627.460938 335.171875 626.804688 335.53125 626.128906 C 335.890625 625.457031 336.21875 624.765625 336.511719 624.058594 C 336.804688 623.351562 337.0625 622.632812 337.28125 621.902344 C 337.503906 621.171875 337.691406 620.429688 337.839844 619.679688 C 337.988281 618.929688 338.101562 618.175781 338.175781 617.414062 C 338.25 616.652344 338.289062 615.890625 338.289062 615.125 L 338.289062 194.867188 C 338.289062 194.101562 338.25 193.339844 338.175781 192.578125 C 338.101562 191.816406 337.988281 191.0625 337.839844 190.3125 C 337.691406 189.5625 337.503906 188.820312 337.28125 188.089844 C 337.0625 187.359375 336.804688 186.640625 336.511719 185.933594 C 336.21875 185.226562 335.890625 184.535156 335.53125 183.859375 C 335.171875 183.1875 334.777344 182.53125 334.355469 181.894531 C 333.929688 181.261719 333.472656 180.648438 332.988281 180.054688 C 332.503906 179.464844 331.992188 178.898438 331.449219 178.359375 C 330.910156 177.816406 330.34375 177.304688 329.753906 176.820312 C 329.160156 176.335938 328.546875 175.878906 327.910156 175.453125 C 327.277344 175.03125 326.621094 174.636719 325.945312 174.277344 C 325.273438 173.917969 324.582031 173.589844 323.875 173.296875 C 323.167969 173.003906 322.449219 172.746094 321.71875 172.523438 C 320.988281 172.304688 320.246094 172.117188 319.496094 171.96875 C 318.746094 171.820312 317.992188 171.707031 317.230469 171.632812 C 316.46875 171.558594 315.707031 171.519531 314.941406 171.519531 Z M 495.050781 171.519531 C 494.285156 171.519531 493.523438 171.558594 492.761719 171.632812 C 492 171.707031 491.246094 171.820312 490.496094 171.96875 C 489.746094 172.117188 489.003906 172.304688 488.273438 172.523438 C 487.542969 172.746094 486.824219 173.003906 486.117188 173.296875 C 485.410156 173.589844 484.71875 173.917969 484.046875 174.277344 C 483.371094 174.636719 482.714844 175.03125 482.078125 175.453125 C 481.445312 175.878906 480.832031 176.335938 480.238281 176.820312 C 479.648438 177.304688 479.082031 177.816406 478.542969 178.359375 C 478 178.898438 477.488281 179.464844 477.003906 180.054688 C 476.519531 180.648438 476.0625 181.261719 475.636719 181.894531 C 475.214844 182.53125 474.820312 183.1875 474.460938 183.859375 C 474.101562 184.535156 473.773438 185.226562 473.480469 185.933594 C 473.1875 186.640625 472.929688 187.359375 472.707031 188.089844 C 472.488281 188.820312 472.300781 189.5625 472.152344 190.3125 C 472.003906 191.0625 471.890625 191.816406 471.816406 192.578125 C 471.742188 193.339844 471.703125 194.101562 471.703125 194.867188 L 471.703125 615.125 C 471.703125 615.890625 471.742188 616.652344 471.816406 617.414062 C 471.890625 618.175781 472.003906 618.929688 472.152344 619.679688 C 472.300781 620.429688 472.488281 621.171875 472.707031 621.902344 C 472.929688 622.632812 473.1875 623.351562 473.480469 624.058594 C 473.773438 624.765625 474.101562 625.457031 474.460938 626.128906 C 474.820312 626.804688 475.214844 627.460938 475.636719 628.097656 C 476.0625 628.730469 476.519531 629.34375 477.003906 629.9375 C 477.488281 630.527344 478 631.09375 478.542969 631.632812 C 479.082031 632.175781 479.648438 632.6875 480.238281 633.171875 C 480.832031 633.65625 481.445312 634.113281 482.078125 634.539062 C 482.714844 634.960938 483.371094 635.355469 484.046875 635.714844 C 484.71875 636.074219 485.410156 636.402344 486.117188 636.695312 C 486.824219 636.988281 487.542969 637.246094 488.273438 637.46875 C 489.003906 637.6875 489.746094 637.875 490.496094 638.023438 C 491.246094 638.171875 492 638.285156 492.761719 638.359375 C 493.523438 638.433594 494.285156 638.472656 495.050781 638.472656 L 581.769531 638.472656 C 582.535156 638.472656 583.296875 638.433594 584.058594 638.359375 C 584.820312 638.285156 585.574219 638.171875 586.324219 638.023438 C 587.074219 637.875 587.816406 637.6875 588.546875 637.46875 C 589.28125 637.246094 590 636.988281 590.707031 636.695312 C 591.410156 636.402344 592.101562 636.074219 592.777344 635.714844 C 593.453125 635.355469 594.105469 634.960938 594.742188 634.539062 C 595.378906 634.113281 595.992188 633.65625 596.582031 633.171875 C 597.171875 632.6875 597.738281 632.175781 598.28125 631.632812 C 598.820312 631.09375 599.332031 630.527344 599.820312 629.9375 C 600.304688 629.34375 600.757812 628.730469 601.183594 628.097656 C 601.609375 627.460938 602 626.804688 602.363281 626.128906 C 602.722656 625.457031 603.046875 624.765625 603.339844 624.058594 C 603.632812 623.351562 603.890625 622.632812 604.113281 621.902344 C 604.335938 621.171875 604.519531 620.429688 604.667969 619.679688 C 604.820312 618.929688 604.929688 618.175781 605.007812 617.414062 C 605.082031 616.652344 605.117188 615.890625 605.117188 615.125 L 605.117188 194.867188 C 605.117188 194.101562 605.082031 193.339844 605.007812 192.578125 C 604.929688 191.816406 604.820312 191.0625 604.667969 190.3125 C 604.519531 189.5625 604.335938 188.820312 604.113281 188.089844 C 603.890625 187.359375 603.632812 186.640625 603.339844 185.933594 C 603.046875 185.226562 602.722656 184.535156 602.363281 183.859375 C 602 183.1875 601.609375 182.53125 601.183594 181.894531 C 600.757812 181.261719 600.304688 180.648438 599.820312 180.054688 C 599.332031 179.464844 598.820312 178.898438 598.28125 178.359375 C 597.738281 177.816406 597.171875 177.304688 596.582031 176.820312 C 595.992188 176.335938 595.378906 175.878906 594.742188 175.453125 C 594.105469 175.03125 593.453125 174.636719 592.777344 174.277344 C 592.101562 173.917969 591.410156 173.589844 590.707031 173.296875 C 590 173.003906 589.28125 172.746094 588.546875 172.523438 C 587.816406 172.304688 587.074219 172.117188 586.324219 171.96875 C 585.574219 171.820312 584.820312 171.707031 584.058594 171.632812 C 583.296875 171.558594 582.535156 171.519531 581.769531 171.519531 Z M 495.050781 171.519531 " fill-opacity="1" fill-rule="nonzero"/></svg>